<svg width="449" height="145" viewBox="0 0 449 145" fill="none" xmlns="http://www.w3.org/2000/svg">
<path d="M10.8622 143.618C5.40462 143.606 0.98976 111.542 0.997965 72.0001C1.00617 32.458 5.43433 0.41211 10.892 0.423391C22.1526 0.446669 20.7748 -5.98638 20.7586 72.041C20.7427 148.705 21.6636 143.64 10.8622 143.618Z" fill="#8F4AAA"/>
<path d="M16.8299 143.625C11.3722 143.614 6.95614 111.55 6.96435 72.0078C6.97255 32.4656 11.4019 0.41971 16.8596 0.430992C22.3148 0.442269 26.7332 32.5064 26.725 72.0486C26.7168 111.591 22.2851 143.637 16.8299 143.625Z" fill="#D676C2"/>
<path d="M26.9426 72.0447C26.9413 78.1751 24.1743 83.1394 20.7614 83.1324C17.3509 83.1253 14.5871 78.1495 14.5884 72.0192C14.5896 65.8919 17.3555 60.9245 20.766 60.9316C24.1789 60.9386 26.9438 65.9175 26.9426 72.0447Z" fill="#452E93"/>
<path d="M448.913 65.0808L23.136 64.217C19.7456 64.2101 18.8322 67.6342 18.8313 71.8599C18.8304 76.0857 19.7423 79.5135 23.1327 79.5203L448.91 80.3842L448.913 65.0808Z" fill="#8F4AAA"/>
<path d="M23.1369 64.217C19.7464 64.21 18.8331 67.6894 18.8322 71.9833C18.8313 76.2772 19.7431 79.7604 23.1336 79.7673L125.942 79.979C128.262 74.7786 130.625 69.6131 132.976 64.4431L23.1369 64.217Z" fill="#6E329B"/>
<path d="M167.733 64.3985C165.27 69.5665 162.806 74.7331 160.35 79.9102L295.405 80.1878C298.229 75.0841 301.004 69.9546 303.558 64.6777L167.733 64.3985Z" fill="#6E329B"/>
<path d="M448.913 64.7915L395.629 64.6815C392.782 70.0045 389.775 75.1675 386.672 80.2558L448.91 80.3842L448.913 64.7915Z" fill="#6E329B"/>
<path d="M151.429 66.636C151.429 66.636 198.713 66.6254 245.998 66.6147C293.283 66.7977 340.567 66.9807 340.567 66.9807L340.725 67.156L340.567 67.3308C340.567 67.3308 293.283 67.3414 245.998 67.3534C198.713 67.169 151.429 66.9861 151.429 66.9861L151.272 66.8108L151.429 66.636Z" fill="#131112"/>
</svg>
