<svg width="326" height="80" viewBox="0 0 326 80" fill="none" xmlns="http://www.w3.org/2000/svg">
<path d="M320.13 0.337808C324.106 0.327325 327.373 17.8948 327.431 39.5759C327.488 61.2571 324.313 78.8415 320.337 78.8519C312.134 78.8736 313.148 82.3966 313.035 39.6139C312.925 -2.42128 312.262 0.358557 320.13 0.337808Z" fill="#8F4AAA"/>
<path d="M315.777 0.349288C319.753 0.338805 323.021 17.9062 323.078 39.5874C323.136 61.2685 319.96 78.853 315.984 78.8634C312.01 78.8739 308.74 61.3065 308.683 39.6254C308.626 17.9442 311.803 0.359767 315.777 0.349288Z" fill="#D676C2"/>
<path d="M308.516 39.6259C308.507 36.2632 310.517 33.5317 313.006 33.5251C315.493 33.5186 317.517 36.2395 317.526 39.6021C317.535 42.9631 315.525 45.6963 313.038 45.7029C310.549 45.7095 308.525 42.9869 308.516 39.6259Z" fill="#452E93"/>
<path d="M0.714844 44.7259L311.303 43.9069C313.776 43.9004 314.437 41.9785 314.431 39.6102C314.424 37.2419 313.754 35.3236 311.28 35.3301L0.692228 36.1491L0.714844 44.7259Z" fill="#8F4AAA"/>
<path d="M311.302 43.907C313.776 43.9005 314.436 41.9786 314.43 39.6103C314.424 37.242 313.753 35.3237 311.28 35.3302L236.286 35.5279C234.602 38.4033 232.887 41.2595 231.181 44.1183L311.302 43.907Z" fill="#6E329B"/>
<path d="M205.825 44.1851C207.612 41.3228 209.402 38.4614 211.185 35.5941L112.669 35.8539C110.617 38.6817 108.601 41.5237 106.747 44.4464L205.825 44.1851Z" fill="#6E329B"/>
<path d="M0.714844 44.7259L39.5824 44.6234C41.6503 41.6868 43.8356 38.8377 46.0908 36.0293L0.692228 36.1491L0.714844 44.7259Z" fill="#6E329B"/>
<path d="M217.716 42.8967C217.716 42.8967 183.223 43.0487 148.731 43.2007C114.238 43.2307 79.7456 43.2605 79.7456 43.2605L79.63 43.1505L79.7451 43.0397C79.7451 43.0397 114.237 42.8878 148.73 42.7349C183.222 42.7059 217.715 42.6759 217.715 42.6759L217.83 42.786L217.716 42.8967Z" fill="#131112"/>
</svg>
